<?xml version="1.0" encoding="UTF-8" standalone="no"?>
<!-- Svg Vector Icons : http://www.onlinewebfonts.com/icon -->

<svg
   version="1.1"
   x="0px"
   y="0px"
   viewBox="0 0 1000 1000"
   enable-background="new 0 0 1000 1000"
   xml:space="preserve"
   id="svg14"
   sodipodi:docname="crossed_sword.svg"
   inkscape:version="1.2.1 (9c6d41e410, 2022-07-14)"
   xmlns:inkscape="http://www.inkscape.org/namespaces/inkscape"
   xmlns:sodipodi="http://sodipodi.sourceforge.net/DTD/sodipodi-0.dtd"
   xmlns="http://www.w3.org/2000/svg"
   xmlns:svg="http://www.w3.org/2000/svg"><defs
   id="defs18" /><sodipodi:namedview
   id="namedview16"
   pagecolor="#ffffff"
   bordercolor="#000000"
   borderopacity="0.25"
   inkscape:showpageshadow="2"
   inkscape:pageopacity="0.0"
   inkscape:pagecheckerboard="0"
   inkscape:deskcolor="#d1d1d1"
   showgrid="false"
   inkscape:zoom="0.72619866"
   inkscape:cx="-128.06413"
   inkscape:cy="257.50529"
   inkscape:window-width="2560"
   inkscape:window-height="1494"
   inkscape:window-x="-11"
   inkscape:window-y="-11"
   inkscape:window-maximized="1"
   inkscape:current-layer="svg14" />
<metadata
   id="metadata2"> Svg Vector Icons : http://www.onlinewebfonts.com/icon </metadata>
<g
   id="g12"
   style="fill:#333333"><g
     transform="translate(0.000000,511.000000) scale(0.100000,-0.100000)"
     id="g10"
     style="fill:#333333"><path
       d="m 425.4,4819.4 c 0,-12.9 36,-406 77.1,-876.3 87.4,-956 87.4,-961.1 300.7,-1161.6 C 870,2717.3 1522.7,2133.9 2250,1486.3 2977.2,838.8 3599.1,286.3 3632.5,255.4 l 56.5,-56.5 -398.3,-447.1 -638.3,-689.8 557.7,-577.6 c 308.4,-308.4 527.9,-560.2 538.2,-560.2 10.3,0 513.8,450.2 776,686.6 l 475.4,424 475.4,-424 c 259.6,-236.4 723.1,-666.6 733.4,-666.6 12.9,0 292.4,231.8 600.8,540.2 l 537.5,557.6 -640.8,709.7 -400.9,449.7 125.9,108 c 66.8,59.1 742.7,660.4 1498.2,1336.3 1094.7,976.5 1387.7,1251.5 1431.4,1344 51.4,100.2 69.4,236.4 136.2,974 43.7,470.3 71.9,863.4 64.2,871.2 -7.7,7.7 -403.5,-20.5 -881.4,-64.2 C 8006.3,4709 7790.4,4680.8 7713.3,4644.8 7638.8,4608.8 7273.9,4215.6 6317.9,3144 5606.1,2344.7 5015,1689.4 5004.8,1686.8 c -10.3,-5.1 -601.3,647.6 -1313.2,1446.8 -938,1048.5 -1326,1467.4 -1400.5,1505.9 -84.8,43.7 -246.7,64.2 -899.4,125.9 -866.1,79.7 -966.3,84.8 -966.3,54 z"
       id="path4"
       sodipodi:nodetypes="sccccccccscccsccccccccccccccccs"
       style="fill:#333333" /><path
       d="M1671.7-297.1c-123.3-56.5-336.7-277.6-362.3-375.2c-7.7-36-10.3-125.9-5.1-197.9c12.9-125.9,20.6-133.6,370-485.7l357.2-357.2l-660.4-660.4l-663-663l-136.2,136.2c-107.9,105.4-156.8,136.2-221,138.8c-164.5,5.1-295.5-167-236.4-310.9c18-38.6,362.3-400.9,768.4-806.9c729.8-727.2,740.1-737.5,845.5-737.5c87.4,0,118.2,15.4,172.2,79.7c105.4,125.9,89.9,208.2-74.5,380.4l-138.8,146.5l647.6,647.6c357.2,357.2,660.4,647.6,673.3,647.6c15.4,0,169.6-146.5,346.9-323.8c177.3-177.3,352.1-339.2,390.6-359.8c82.2-43.7,221-46.3,321.2-7.7c84.8,30.8,305.8,239,357.2,336.6c46.3,89.9,46.3,285.2,0,375.2c-20.6,38.5-562.8,593.6-1202.7,1230.9c-1177,1177-1223.2,1218.1-1395.4,1215.5C1797.6-248.3,1728.3-271.4,1671.7-297.1z"
       id="path6"
       style="fill:#333333" /><path
       d="M8006.3-276.5c-79.7-30.8-2377.1-2320.5-2431-2423.3c-51.4-92.5-51.4-272.4-2.6-364.9c54-102.8,272.4-311,359.8-341.8c100.2-38.5,239-36,321.2,7.7c38.5,20.6,213.3,182.5,390.6,359.8c177.3,177.3,331.5,323.8,346.9,323.8c12.8,0,316.1-290.4,673.3-647.6l647.6-647.6l-138.8-146.5c-164.5-172.2-179.9-254.4-74.5-380.4c54-64.2,84.8-79.7,172.2-79.7c105.4,0,115.6,10.3,845.5,737.5c406,406,750.4,768.4,768.4,809.5c59.1,143.9-61.7,303.2-231.3,303.2c-74.5,0-115.6-23.1-226.1-133.6l-136.2-136.2l-663,663L7967.7-1713l357.2,357.2c349.5,352.1,357.2,359.8,370,485.7c15.4,185-7.7,249.3-143.9,395.8C8368.6-276.5,8178.5-209.7,8006.3-276.5z"
       id="path8"
       style="fill:#333333" /></g></g>
</svg>
