<?xml version="1.0" encoding="UTF-8" standalone="no"?>
<!-- Created with Inkscape (http://www.inkscape.org/) -->

<svg
   id="svg2"
   version="1.1"
   inkscape:version="1.2.1 (9c6d41e410, 2022-07-14)"
   width="2048"
   height="2048"
   viewBox="0 0 2048 2048"
   sodipodi:docname="rune2.svg"
   xmlns:inkscape="http://www.inkscape.org/namespaces/inkscape"
   xmlns:sodipodi="http://sodipodi.sourceforge.net/DTD/sodipodi-0.dtd"
   xmlns="http://www.w3.org/2000/svg"
   xmlns:svg="http://www.w3.org/2000/svg"
   xmlns:rdf="http://www.w3.org/1999/02/22-rdf-syntax-ns#"
   xmlns:cc="http://creativecommons.org/ns#"
   xmlns:dc="http://purl.org/dc/elements/1.1/">
  <metadata
     id="metadata8">
    <rdf:RDF>
      <cc:Work
         rdf:about="">
        <dc:format>image/svg+xml</dc:format>
        <dc:type
           rdf:resource="http://purl.org/dc/dcmitype/StillImage" />
        <dc:title />
      </cc:Work>
    </rdf:RDF>
  </metadata>
  <defs
     id="defs6" />
  <sodipodi:namedview
     pagecolor="#ffffff"
     bordercolor="#666666"
     borderopacity="1"
     objecttolerance="10"
     gridtolerance="10"
     guidetolerance="10"
     inkscape:pageopacity="0"
     inkscape:pageshadow="2"
     inkscape:window-width="993"
     inkscape:window-height="480"
     id="namedview4"
     showgrid="false"
     inkscape:zoom="0.27783203"
     inkscape:cx="1027.5993"
     inkscape:cy="1025.7997"
     inkscape:current-layer="svg2"
     inkscape:showpageshadow="2"
     inkscape:pagecheckerboard="0"
     inkscape:deskcolor="#d1d1d1"
     inkscape:window-x="0"
     inkscape:window-y="0"
     inkscape:window-maximized="0" />
  <path
     style="fill:#333333"
     d="m 913.59131,1939.8989 c -69.4105,-59.2659 -125.94314,-110.442 -125.62806,-113.7232 0.31389,-3.2845 12.29501,-30.3141 26.62205,-60.0716 38.732,-80.445 45.61331,-136.0317 45.61331,-368.4711 0,-170.2709 -2.58776,-212.1987 -13.35085,-216.331 -7.34299,-2.8153 -62.25585,27.5571 -122.02862,67.4981 -59.77279,39.9409 -112.55865,71.2679 -117.30193,69.6111 -11.5602,-4.032 -184.58913,-229.1388 -238.79556,-310.6678 C 280.88365,875.6337 229.098,734.033 229.30923,626.539 229.58073,488.3716 287.75059,371.9011 432.55811,219.5863 496.88794,151.92 684.37415,-1.9027773e-5 703.55216,-1.9027773e-5 711.56449,-1.9027773e-5 1094.0557,152.962 1099.395,158.3012 c 1.929,1.9416 -3.1323,46.8238 -11.2473,99.7699 -18.3594,119.7841 -27.7557,413.6899 -17.3453,542.5475 l 7.8209,96.8025 67.9543,11.4325 c 288.79,48.5906 487.9666,160.2784 621.1448,348.3016 72.115,101.815 68.3428,108.8855 -15.3892,28.8482 -96.1844,-91.9422 -169.6712,-138.7983 -275.7848,-175.8464 -68.6183,-23.9555 -91.5712,-27.1138 -198.916,-27.3726 -73.4403,-0.3236 -138.1492,4.7697 -163.9067,12.5295 l -42.5597,12.8207 4.5595,273.5194 c 4.1281,247.6418 6.4143,277.655 24.1617,317.2076 36.2871,80.8657 81.3453,103.721 155.1965,78.7203 55.1529,-18.6713 71.0875,-16.8559 71.0875,8.0995 0,15.8948 -263.4007,263.1127 -279.4872,262.3167 -3.7905,-0.3236 -63.68219,-48.8333 -133.09269,-108.0992 z M 753.41323,947.908 l 72.80822,-21.4348 0,-313.5089 0,-313.5122 -121.34703,-52.3054 C 638.13355,218.3761 575.7849,194.6859 566.3219,194.4982 c -24.00633,-0.4854 -100.37593,72.2905 -131.36341,125.1687 -22.36116,38.1547 -26.33885,57.3081 -29.47038,141.9048 -4.17006,112.6521 11.09161,186.9748 57.93248,282.1205 50.03562,101.6371 166.9519,229.1777 207.47666,226.33 5.33927,-0.3883 42.47146,-10.3258 82.51598,-22.1142 z M 1180.5435,711.0936 c -0.01,-4.0029 24.5691,-64.767 54.6117,-135.0253 l 54.6229,-127.7477 44.8928,-3.8022 c 51.5889,-4.3685 127.409,8.9829 127.409,22.4347 0,47.9628 -211.2757,251.4213 -261.0796,251.4213 -11.2451,0 -20.4506,-3.2748 -20.4568,-7.2808 z"
     id="path4138"
     inkscape:connector-curvature="0" />
</svg>
