<?xml version="1.0" encoding="UTF-8" standalone="no"?>
<!-- Created with Inkscape (http://www.inkscape.org/) -->

<svg
   id="svg2"
   version="1.1"
   inkscape:version="1.2.1 (9c6d41e410, 2022-07-14)"
   width="2048"
   height="2048"
   viewBox="0 0 2048 2048"
   sodipodi:docname="rune1.svg"
   xmlns:inkscape="http://www.inkscape.org/namespaces/inkscape"
   xmlns:sodipodi="http://sodipodi.sourceforge.net/DTD/sodipodi-0.dtd"
   xmlns="http://www.w3.org/2000/svg"
   xmlns:svg="http://www.w3.org/2000/svg"
   xmlns:rdf="http://www.w3.org/1999/02/22-rdf-syntax-ns#"
   xmlns:cc="http://creativecommons.org/ns#"
   xmlns:dc="http://purl.org/dc/elements/1.1/">
  <metadata
     id="metadata8">
    <rdf:RDF>
      <cc:Work
         rdf:about="">
        <dc:format>image/svg+xml</dc:format>
        <dc:type
           rdf:resource="http://purl.org/dc/dcmitype/StillImage" />
        <dc:title />
      </cc:Work>
    </rdf:RDF>
  </metadata>
  <defs
     id="defs6" />
  <sodipodi:namedview
     pagecolor="#ffffff"
     bordercolor="#666666"
     borderopacity="1"
     objecttolerance="10"
     gridtolerance="10"
     guidetolerance="10"
     inkscape:pageopacity="0"
     inkscape:pageshadow="2"
     inkscape:window-width="993"
     inkscape:window-height="480"
     id="namedview4"
     showgrid="false"
     inkscape:zoom="0.27783203"
     inkscape:cx="1027.5993"
     inkscape:cy="1025.7997"
     inkscape:current-layer="svg2"
     inkscape:showpageshadow="2"
     inkscape:pagecheckerboard="0"
     inkscape:deskcolor="#d1d1d1"
     inkscape:window-x="0"
     inkscape:window-y="0"
     inkscape:window-maximized="0" />
  <path
     style="fill:#333333"
     d="m 1073.7472,1989.0376 c -23.1771,-83.3636 -55.7111,-118.0999 -153.47545,-163.8628 -60.87156,-28.4931 -81.41343,-42.9881 -77.50453,-54.6911 52.53999,-157.2918 51.1447,-144.7881 52.04101,-466.3051 l 0.85141,-305.43091 -148.85593,0 -148.85596,0 -35.38153,87.91581 c -52.52391,130.5105 -63.90212,211.5342 -41.87372,298.1903 9.71077,38.1979 14.75953,80.123 11.2195,93.1616 -6.22634,22.9367 -7.10785,23.1058 -27.00603,5.1768 -11.31324,-10.1914 -71.83581,-73.2999 -134.49453,-140.2359 l -113.92499,-121.7065 76.01428,-243.25761 76.01427,-243.2611 47.37289,0 c 47.62745,0 274.51273,15.4752 385.41543,26.2878 l 59.53315,5.8015 -0.17946,-132.5226 c -0.17256,-128.381 -13.82332,-304.896 -26.03842,-336.7298 -9.84102,-25.6458 -49.35384,-37.6457 -95.91198,-29.135 -47.35874,8.6625 -53.88119,5.9775 -53.88119,-22.1809 0,-12.3863 15.49001,-26.2981 44.00276,-39.5162 C 1114.1312,46.631488 1247.4442,-9.1640523 1259.9309,1.1998877 c 21.9322,18.2016003 16.0203,35.5646003 -21.9792,64.5477003 -21.0171,16.0309 -49.6613,55.692002 -69.8868,96.764702 l -34.2726,69.6003 -3.6218,261.6629 -3.6218,261.6628 81.2737,0 c 44.7005,0 109.19,-6.7264 143.3099,-14.7504 34.1199,-8.0275 62.7497,-13.7772 63.6219,-12.7832 0.8717,1.0008 13.3774,29.7665 27.7896,63.9334 14.4123,34.1668 38.024,88.6543 52.4706,121.0783 l 26.2664,58.9568 -43.6172,5.446 c -23.9895,3.0026 -112.3391,8.3968 -196.3326,12.0067 l -152.7155,6.5608 0,278.47011 c 0,238.9023 2.1763,278.4702 15.3167,278.4702 14.4945,0 245.4198,-209.7775 382.2819,-347.2732 34.7249,-34.8847 80.7514,-93.3204 102.2811,-129.8582 60.7479,-103.09421 74.4754,-160.38061 74.6195,-311.40501 0.1415,-149.2125 11.4759,-159.1761 46.6088,-40.9726 57.4954,193.4362 55.4665,425.82251 -4.8683,557.60991 -22.706,49.5972 -72.1182,104.7301 -294.6946,328.8128 -266.4422,268.2478 -302.241,312.5922 -319.5372,395.842 -12.9312,62.2389 -36.9401,55.3227 -56.8762,-16.3829 z"
     id="path4138"
     inkscape:connector-curvature="0" />
</svg>
