<?xml version="1.0" encoding="UTF-8" standalone="no"?>
<!-- Created with Inkscape (http://www.inkscape.org/) -->

<svg
   id="svg2"
   version="1.1"
   inkscape:version="1.2.1 (9c6d41e410, 2022-07-14)"
   width="2048"
   height="2048"
   viewBox="0 0 2048 2048"
   sodipodi:docname="rune3.svg"
   xmlns:inkscape="http://www.inkscape.org/namespaces/inkscape"
   xmlns:sodipodi="http://sodipodi.sourceforge.net/DTD/sodipodi-0.dtd"
   xmlns="http://www.w3.org/2000/svg"
   xmlns:svg="http://www.w3.org/2000/svg"
   xmlns:rdf="http://www.w3.org/1999/02/22-rdf-syntax-ns#"
   xmlns:cc="http://creativecommons.org/ns#"
   xmlns:dc="http://purl.org/dc/elements/1.1/">
  <metadata
     id="metadata8">
    <rdf:RDF>
      <cc:Work
         rdf:about="">
        <dc:format>image/svg+xml</dc:format>
        <dc:type
           rdf:resource="http://purl.org/dc/dcmitype/StillImage" />
        <dc:title />
      </cc:Work>
    </rdf:RDF>
  </metadata>
  <defs
     id="defs6" />
  <sodipodi:namedview
     pagecolor="#ffffff"
     bordercolor="#666666"
     borderopacity="1"
     objecttolerance="10"
     gridtolerance="10"
     guidetolerance="10"
     inkscape:pageopacity="0"
     inkscape:pageshadow="2"
     inkscape:window-width="2560"
     inkscape:window-height="1494"
     id="namedview4"
     showgrid="false"
     inkscape:zoom="0.27783203"
     inkscape:cx="1025.7997"
     inkscape:cy="1025.7997"
     inkscape:current-layer="svg2"
     inkscape:showpageshadow="2"
     inkscape:pagecheckerboard="0"
     inkscape:deskcolor="#d1d1d1"
     inkscape:window-x="-11"
     inkscape:window-y="-11"
     inkscape:window-maximized="1" />
  <path
     style="fill:#333333"
     d="m 1068.5025,2016.4995 c -164.50161,-61.1408 -318.20664,-192.2743 -383.25723,-326.9793 -58.60156,-121.3486 -66.23361,-261.1194 -22.01581,-403.1927 23.83034,-76.5672 63.15123,-138.5553 87.95459,-138.659 15.64121,0 14.73382,9.0485 -8.04391,80.7751 -45.17556,142.2591 -27.83501,229.3764 72.07228,362.0865 118.71919,157.6963 324.94098,276.9606 432.30698,250.0117 46.7098,-11.7226 98.693,-66.4069 113.5418,-119.443 20.7565,-74.1326 7.889,-183.8014 -31.0884,-264.9591 -31.9247,-66.4748 -293.316,-508.4534 -311.3984,-526.5361 -5.3306,-5.3304 -77.93449,12.7451 -168.64084,41.9821 -207.02336,66.725 -255.12894,68.3588 -371.87698,12.6128 C 364.54226,929.9969 256.72859,856.1145 172.73786,774.9676 102.68232,707.2844 86.093787,669.3494 150.10628,723.2113 c 90.31828,75.9989 214.75827,110.0335 337.86908,92.412 79.45757,-11.3759 135.81262,-26.2839 290.47348,-76.8568 l 98.52081,-32.215 -37.4838,-87.5749 C 777.24026,473.55 779.4465,463.2896 920.41392,242.6185 1071.738,5.7344025 1076.3271,1.2463571e-5 1114.5582,1.2463571e-5 c 16.983,0 91.6745,19.305389536429 165.9813,42.900789536429 74.3068,23.5955 145.9151,42.9009 159.1295,42.9009 13.2143,0 42.9593,-9.6527 66.0999,-21.4505 37.3424,-19.0372 91.1642,-29.0617 91.1642,-16.9815 0,19.7701 -155.7206,285.161698 -165.0101,281.225598 -6.5757,-2.7886 -74.0113,-32.5403 -149.8568,-66.1173 -75.8456,-33.5771 -156.5957,-63.5576 -179.4448,-66.6214 -87.6007,-11.7513 -135.55602,38.4963 -125.11868,131.0942 5.76087,51.1127 97.52988,247.9953 139.32788,298.9222 l 25.135,30.624 117.5504,-23.3488 c 252.8729,-50.219 303.7946,-64.8517 326.5993,-93.8455 11.8486,-15.0618 21.5431,-40.9882 21.5431,-57.6123 0,-33.4304 20.1737,-84.8578 33.2887,-84.8578 6.4052,0 281.8979,164.1707 296.9105,176.9337 1.6942,1.4301 -32.0719,61.1552 -75.036,132.6994 l -78.1166,130.0825 -37.5786,-8.0368 c -75.0817,-16.052 -248.9698,-7.4504 -364.6974,18.0398 -61.9381,13.6425 -113.9968,26.0015 -115.6861,27.4637 -1.6893,1.4658 40.6222,81.7153 94.0256,178.3387 128.4553,232.4188 142.7791,270.8865 143.3002,384.824 0.4741,103.559 -18.2951,172.8045 -74.6124,275.2767 -65.4993,119.1749 -239.3371,337.036 -267.7368,335.538 -5.4353,-0.3575 -47.383,-14.4576 -93.217,-31.4928 z"
     id="path4138"
     inkscape:connector-curvature="0" />
</svg>
